<svg xmlns="http://www.w3.org/2000/svg" width="71" height="70.5" viewBox="0 0 71 70.5">
  <defs>
    <style>
      .cls-1, .cls-2 {
        fill: #285d3e;
      }

      .cls-2 {
        font-size: 22px;
        font-family: Pretendard-Bold, Pretendard;
        font-weight: 700;
      }

      .cls-3 {
        fill: #fff;
      }
    </style>
  </defs>
  <g id="그룹_8" data-name="그룹 8" transform="translate(-218 -62.5)">
    <path id="다각형_1" data-name="다각형 1" class="cls-1" d="M31.917,0a3,3,0,0,1,2.6,1.507l9.5,16.56a3,3,0,0,1,0,2.985l-9.5,16.56a3,3,0,0,1-2.6,1.507H12.956a3,3,0,0,1-2.6-1.507l-9.5-16.56a3,3,0,0,1,0-2.985l9.5-16.56A3,3,0,0,1,12.956,0Z" transform="translate(274.38 62.5) rotate(90)"/>
    <text id="EcoMe" class="cls-2" transform="translate(218 128)"><tspan x="0" y="0">EcoMe</tspan></text>
    <path id="energy_savings_leaf_24dp_FFFFFF_FILL0_wght200_GRAD0_opsz24" class="cls-3" d="M210.624-740.324a8.61,8.61,0,0,0,6.395-2.663,9.03,9.03,0,0,0,2.657-6.439v-9.061h-9.061a9.031,9.031,0,0,0-6.439,2.658,8.61,8.61,0,0,0-2.663,6.395,8.793,8.793,0,0,0,2.657,6.447A8.776,8.776,0,0,0,210.624-740.324Zm-1.5-3.617,5.809-5.2a.513.513,0,0,0,.162-.6.631.631,0,0,0-.518-.419l-4.546-.414,2.759-3.775a.46.46,0,0,0,.074-.286.5.5,0,0,0-.1-.278.407.407,0,0,0-.34-.144.627.627,0,0,0-.346.142l-5.752,5.181a.55.55,0,0,0-.175.611.6.6,0,0,0,.5.433l4.546.414-2.739,3.775a.44.44,0,0,0-.07.287.482.482,0,0,0,.122.278.358.358,0,0,0,.282.122A.522.522,0,0,0,209.124-743.94Zm1.5,5.13a10.287,10.287,0,0,1-3.774-.691,10.9,10.9,0,0,1-3.177-1.9l-2.373,2.372a.755.755,0,0,1-.254.166.8.8,0,0,1-.292.055.726.726,0,0,1-.537-.219.74.74,0,0,1-.217-.543.777.777,0,0,1,.055-.291.734.734,0,0,1,.166-.249l2.372-2.372a10.9,10.9,0,0,1-1.9-3.177,10.287,10.287,0,0,1-.691-3.774,10.153,10.153,0,0,1,3.1-7.5A10.286,10.286,0,0,1,210.62-760h10.57v10.57a10.286,10.286,0,0,1-3.071,7.523A10.153,10.153,0,0,1,210.624-738.81ZM210.595-749.405Z" transform="translate(44.224 834.342)"/>
  </g>
</svg>
